<svg xmlns="http://www.w3.org/2000/svg" xmlns:xlink="http://www.w3.org/1999/xlink" width="116" zoomAndPan="magnify" viewBox="0 0 87 90.749999" height="121" preserveAspectRatio="xMidYMid meet" version="1.0"><defs><clipPath id="fcb39d7d2e"><path d="M 0.121094 0 L 86.878906 0 L 86.878906 90.5 L 0.121094 90.5 Z M 0.121094 0 " clip-rule="nonzero"/></clipPath><clipPath id="ba872cb6a3"><path d="M 0.121094 0 L 86.878906 0 L 86.878906 89.753906 L 0.121094 89.753906 Z M 0.121094 0 " clip-rule="nonzero"/></clipPath></defs><g clip-path="url(#fcb39d7d2e)"><path fill="#ffffff" d="M 0.121094 0 L 86.878906 0 L 86.878906 90.5 L 0.121094 90.5 Z M 0.121094 0 " fill-opacity="1" fill-rule="nonzero"/></g><g clip-path="url(#ba872cb6a3)"><path fill="#ffffff" d="M 86.597656 25.210938 C 86.414062 23.617188 86.246094 21.980469 85.808594 20.433594 C 85.808594 20.429688 85.804688 20.429688 85.804688 20.425781 C 85.875 20.40625 85.9375 20.386719 86.003906 20.371094 C 86.082031 20.351562 86.070312 20.21875 85.988281 20.230469 C 85.9375 20.234375 85.890625 20.242188 85.84375 20.246094 C 85.496094 19.832031 85.023438 19.582031 84.546875 19.324219 C 83.972656 19.011719 83.367188 18.722656 82.769531 18.445312 C 81.710938 17.953125 80.625 17.503906 79.535156 17.078125 C 79.300781 16.476562 78.964844 15.910156 78.523438 15.410156 C 78.378906 15.242188 78.214844 15.085938 78.046875 14.933594 C 78.042969 14.902344 78.046875 14.871094 78.035156 14.839844 C 77.34375 12.804688 76.476562 10.773438 75.003906 9.167969 C 73.609375 7.648438 71.726562 6.632812 69.683594 6.347656 C 64.894531 5.675781 60.839844 8.394531 56.777344 10.449219 C 55.597656 11.042969 54.390625 11.582031 53.117188 11.957031 C 52.523438 12.132812 51.917969 12.296875 51.304688 12.40625 C 50.804688 12.496094 50.285156 12.617188 49.769531 12.691406 C 50.605469 10.742188 51.605469 8.882812 53.011719 7.234375 C 54.097656 5.960938 55.402344 4.6875 56.886719 3.894531 C 57.609375 3.511719 58.808594 3.160156 59.355469 4.007812 C 59.84375 4.761719 59.214844 5.753906 58.835938 6.417969 C 58.34375 7.261719 57.753906 8.042969 57.132812 8.796875 C 56.488281 9.578125 55.792969 10.371094 55.019531 11.023438 C 54.953125 11.082031 55.042969 11.199219 55.117188 11.148438 C 55.988281 10.597656 56.816406 10.070312 57.578125 9.367188 C 58.304688 8.691406 58.921875 7.914062 59.460938 7.082031 C 59.75 6.632812 60.066406 6.132812 60.269531 5.609375 C 61.046875 4.621094 61.828125 3.40625 61.484375 2.121094 C 61.15625 0.863281 59.96875 0.078125 58.699219 0.113281 C 57.886719 0.136719 57.074219 0.351562 56.277344 0.503906 C 55.375 0.679688 54.464844 0.859375 53.558594 1.027344 C 51.988281 1.3125 50.210938 1.445312 48.835938 2.335938 C 48.820312 2.34375 48.808594 2.351562 48.800781 2.359375 C 46.492188 2.375 44.222656 0.773438 41.941406 0.480469 C 40.777344 0.332031 39.367188 0.425781 38.585938 1.425781 C 37.574219 2.722656 38.691406 4.15625 38.382812 5.546875 C 37.429688 4.246094 36.230469 3.164062 34.863281 2.308594 C 34.136719 1.847656 33.34375 1.472656 32.472656 1.449219 C 31.652344 1.425781 31.027344 1.742188 30.410156 2.238281 C 30.046875 2.527344 29.6875 2.839844 29.234375 2.984375 C 28.789062 3.125 28.296875 3.113281 27.863281 3.300781 C 27.640625 3.398438 27.390625 3.640625 27.296875 3.886719 C 26.714844 3.511719 25.910156 3.566406 25.246094 3.679688 C 24.117188 3.875 22.996094 4.15625 21.878906 4.421875 C 20.746094 4.691406 19.628906 5.011719 18.5 5.285156 C 17.65625 5.488281 16.722656 5.683594 16.019531 6.222656 C 15.421875 6.679688 15.121094 7.425781 15.414062 8.144531 C 15.722656 8.917969 16.519531 9.421875 17.210938 9.820312 C 18.621094 10.644531 20.199219 11.199219 21.734375 11.746094 C 22.3125 11.957031 22.957031 12.179688 23.558594 12.472656 C 23.417969 12.503906 23.277344 12.535156 23.136719 12.570312 C 21.304688 12.039062 19.449219 11.621094 17.527344 11.523438 C 14.71875 11.382812 11.703125 11.859375 9.207031 13.207031 C 7.703125 14.015625 6.175781 15.242188 5.265625 16.773438 C 3.894531 17.136719 2.53125 17.53125 1.1875 18.003906 C 1.050781 18.054688 1.058594 18.289062 1.222656 18.277344 C 1.25 18.273438 1.273438 18.273438 1.300781 18.265625 C 2.246094 18.992188 3.363281 19.496094 4.429688 20.027344 C 4.578125 22.261719 6.167969 24.210938 8.121094 25.242188 C 8.328125 25.351562 8.515625 25.042969 8.304688 24.917969 C 7.195312 24.269531 6.179688 23.371094 5.585938 22.210938 C 5.046875 21.160156 4.992188 20.136719 5.304688 19.015625 C 5.957031 16.683594 8.097656 15.011719 10.261719 14.128906 C 12.761719 13.113281 15.421875 12.6875 18.113281 12.921875 C 20.988281 13.171875 23.722656 14.179688 26.449219 15.0625 C 27.980469 15.550781 29.535156 16.011719 31.117188 16.28125 C 32.457031 16.511719 34.125 16.796875 35.46875 16.382812 C 35.089844 17.109375 34.9375 17.925781 35.058594 18.75 C 35.058594 18.75 35.058594 18.75 35.054688 18.75 C 33.265625 20.292969 31.019531 21.222656 28.703125 21.628906 C 26.003906 22.097656 23.320312 21.460938 20.621094 21.664062 C 18.351562 21.835938 16.078125 22.609375 14.246094 23.976562 C 13 24.902344 10.972656 26.945312 12.15625 28.621094 C 12.796875 29.523438 14.089844 29.605469 15.089844 29.445312 C 16.429688 29.238281 17.785156 28.5 18.96875 27.867188 C 19.027344 27.835938 18.984375 27.746094 18.921875 27.757812 C 17.785156 27.976562 16.785156 28.609375 15.636719 28.796875 C 14.742188 28.941406 13.082031 29.023438 12.683594 27.957031 C 12.359375 27.09375 13.148438 26.113281 13.695312 25.535156 C 14.371094 24.824219 15.191406 24.269531 16.066406 23.832031 C 18.082031 22.835938 20.324219 22.53125 22.554688 22.652344 C 23.886719 22.726562 25.1875 22.824219 26.488281 22.816406 C 23.800781 23.761719 20.800781 24.4375 19.664062 27.253906 C 19.34375 28.042969 19.152344 28.890625 18.984375 29.738281 C 18.972656 29.742188 18.957031 29.742188 18.949219 29.746094 C 16.960938 30.632812 14.894531 31.542969 12.664062 31.367188 C 10.957031 31.230469 9.183594 30.222656 8.84375 28.425781 C 8.519531 26.722656 9.621094 25.113281 10.75 23.960938 C 12.117188 22.554688 13.863281 21.476562 15.65625 20.691406 C 17.941406 19.6875 20.375 19.40625 22.851562 19.546875 C 22.921875 19.550781 22.921875 19.457031 22.863281 19.433594 C 20.617188 18.535156 17.964844 18.878906 15.726562 19.632812 C 13.5625 20.359375 11.492188 21.589844 9.890625 23.230469 C 8.558594 24.585938 7.472656 26.449219 7.785156 28.414062 C 8.078125 30.277344 9.621094 31.683594 11.398438 32.164062 C 13.898438 32.84375 16.457031 31.960938 18.746094 30.925781 C 18.742188 30.945312 18.734375 30.96875 18.730469 30.984375 C 18.449219 32.265625 18.164062 33.550781 17.882812 34.832031 C 17.402344 37 16.996094 39.21875 16.347656 41.347656 C 16.148438 42.003906 15.90625 42.644531 15.644531 43.28125 C 13.332031 42.179688 11.015625 41.078125 8.703125 39.976562 C 6.359375 38.863281 4.007812 37.792969 1.585938 36.871094 C 1.957031 36.804688 2.265625 36.53125 2.238281 36.03125 C 2.089844 33.292969 1.917969 30.539062 1.675781 27.808594 C 1.433594 25.054688 1.332031 22.300781 1.117188 19.546875 C 1.101562 19.316406 0.792969 19.324219 0.765625 19.546875 C 0.445312 22.285156 0.351562 25.054688 0.242188 27.808594 C 0.132812 30.535156 0.226562 33.308594 0.460938 36.03125 C 0.492188 36.382812 0.683594 36.628906 0.9375 36.765625 C 4.472656 39.277344 8.339844 41.347656 12.207031 43.335938 C 12.160156 43.390625 12.128906 43.453125 12.117188 43.539062 C 11.871094 45.375 11.800781 47.242188 11.714844 49.09375 C 11.628906 50.910156 11.640625 52.722656 11.757812 54.539062 C 11.988281 58.199219 12.730469 61.753906 13.503906 65.324219 C 14.167969 68.386719 14.707031 71.472656 14.378906 74.585938 C 13.863281 74.242188 13.351562 73.902344 12.835938 73.5625 C 11.730469 72.824219 10.621094 72.082031 9.515625 71.34375 C 8.949219 70.960938 8.378906 70.59375 7.808594 70.230469 C 7.476562 70.015625 7.136719 69.789062 6.773438 69.652344 C 6.933594 68.816406 6.914062 67.917969 6.953125 67.078125 C 7.003906 66.128906 7.039062 65.183594 7.046875 64.238281 C 7.066406 62.34375 7.085938 60.445312 7.054688 58.546875 C 6.984375 54.71875 6.847656 50.882812 6.503906 47.074219 C 6.410156 46.015625 6.292969 44.960938 6.175781 43.90625 C 6.066406 42.925781 5.917969 41.804688 5.527344 40.902344 C 5.410156 40.625 4.972656 40.71875 4.90625 40.984375 C 4.804688 41.375 4.808594 41.765625 4.789062 42.164062 C 4.761719 42.671875 4.699219 43.179688 4.710938 43.691406 C 4.726562 44.632812 4.753906 45.582031 4.789062 46.527344 C 4.847656 48.421875 4.914062 50.316406 4.988281 52.207031 C 5.125 55.957031 5.238281 59.71875 5.292969 63.472656 C 5.308594 64.53125 5.324219 65.589844 5.363281 66.648438 C 5.40625 67.707031 5.324219 68.835938 5.53125 69.875 C 5.613281 70.269531 6.039062 70.394531 6.367188 70.269531 C 6.535156 70.488281 6.746094 70.683594 6.960938 70.878906 C 7.417969 71.292969 7.894531 71.691406 8.375 72.074219 C 9.347656 72.839844 10.316406 73.605469 11.316406 74.335938 C 12.238281 75.007812 13.171875 75.65625 14.117188 76.296875 C 14.007812 76.941406 13.945312 77.59375 14.078125 78.246094 C 14.222656 78.957031 14.675781 79.535156 15.230469 79.980469 C 16.503906 81 18.214844 81.527344 19.683594 82.175781 C 20.542969 82.554688 21.40625 83.042969 22.367188 83.050781 C 23.03125 83.058594 23.527344 82.832031 23.90625 82.453125 C 25.917969 83.632812 27.949219 84.789062 30.011719 85.875 C 31.21875 86.515625 32.429688 87.144531 33.652344 87.757812 C 34.929688 88.398438 36.199219 89.078125 37.523438 89.609375 C 37.867188 89.746094 38.152344 89.582031 38.304688 89.328125 C 39.53125 89.269531 40.761719 88.863281 41.933594 88.566406 C 43.375 88.195312 44.808594 87.808594 46.242188 87.417969 C 49.144531 86.625 52.03125 85.78125 54.921875 84.945312 C 56.332031 84.539062 57.746094 84.128906 59.160156 83.71875 C 61.105469 84.0625 63.050781 84.234375 65.019531 83.800781 C 67.066406 83.351562 69.851562 82.515625 70.785156 80.433594 C 70.792969 80.410156 70.804688 80.382812 70.8125 80.355469 C 71.324219 80.207031 71.839844 80.058594 72.355469 79.910156 C 73.945312 79.453125 75.539062 78.992188 77.128906 78.53125 C 77.941406 78.292969 78.75 78.058594 79.5625 77.820312 C 80.175781 77.644531 80.800781 77.480469 81.398438 77.25 C 81.882812 77.316406 82.4375 77.035156 82.453125 76.402344 C 82.777344 64.667969 83.082031 52.9375 82.832031 41.207031 C 83.613281 41.035156 84.394531 40.855469 85.164062 40.648438 C 85.378906 40.589844 85.34375 40.238281 85.109375 40.253906 C 81.851562 40.507812 78.609375 41.171875 75.390625 41.714844 C 73.515625 42.03125 71.652344 42.40625 69.789062 42.796875 C 69.417969 41.832031 68.96875 40.898438 68.515625 39.972656 C 66.976562 36.824219 65.777344 33.605469 65.503906 30.082031 C 65.390625 28.597656 65.386719 27.125 64.988281 25.691406 C 66.761719 25.230469 68.542969 24.78125 70.328125 24.34375 C 70.476562 24.425781 70.625 24.507812 70.78125 24.578125 C 71.332031 24.84375 71.867188 25.097656 72.484375 25.15625 C 72.714844 25.179688 72.949219 25.171875 73.1875 25.152344 C 74.5 25.28125 75.835938 25.199219 77.042969 24.652344 C 78.085938 24.179688 78.914062 23.289062 79 22.210938 C 79.5 22.085938 80.003906 21.953125 80.496094 21.816406 C 81.414062 21.566406 82.34375 21.363281 83.265625 21.144531 C 84.085938 20.949219 84.886719 20.683594 85.703125 20.464844 C 85.546875 22.070312 85.582031 23.707031 85.527344 25.324219 C 85.472656 26.953125 85.464844 28.582031 85.417969 30.214844 C 85.378906 31.816406 85.316406 33.417969 85.222656 35.015625 C 85.179688 35.820312 85.117188 36.621094 85.0625 37.417969 C 85.007812 38.199219 84.820312 39.207031 85.121094 39.953125 C 85.277344 40.347656 85.765625 40.445312 86.015625 40.070312 C 86.464844 39.410156 86.46875 38.398438 86.546875 37.625 C 86.628906 36.824219 86.671875 36.019531 86.722656 35.222656 C 86.824219 33.554688 86.867188 31.890625 86.855469 30.21875 C 86.851562 28.539062 86.785156 26.859375 86.597656 25.210938 Z M 4.773438 17.804688 C 4.636719 18.167969 4.53125 18.542969 4.472656 18.929688 C 4.46875 18.960938 4.46875 19 4.464844 19.03125 C 3.644531 18.707031 2.8125 18.394531 1.957031 18.191406 C 2.898438 18.085938 3.839844 17.953125 4.773438 17.804688 Z M 50.535156 13.203125 C 51.097656 13.242188 51.660156 13.171875 52.214844 13.09375 C 53.316406 12.9375 54.382812 12.605469 55.417969 12.207031 C 57.492188 11.402344 59.386719 10.242188 61.378906 9.265625 C 65.167969 7.410156 69.945312 6.316406 73.476562 9.308594 C 74.945312 10.546875 75.792969 12.183594 76.554688 13.886719 C 75.28125 13.207031 73.785156 12.855469 72.441406 12.984375 C 72.277344 13.003906 72.210938 13.257812 72.402344 13.296875 C 73.421875 13.507812 74.421875 13.707031 75.371094 14.164062 C 76.238281 14.574219 77.023438 15.132812 77.679688 15.84375 C 78.902344 17.167969 79.210938 18.984375 78.589844 20.605469 C 77.878906 19.378906 76.46875 18.683594 75.144531 18.265625 C 73.351562 17.703125 71.425781 17.46875 69.554688 17.398438 C 67.636719 17.332031 65.707031 17.507812 63.828125 17.890625 C 62.582031 18.144531 61.394531 18.601562 60.160156 18.898438 C 58.140625 19.378906 56.070312 19.714844 54.011719 20.023438 C 52.734375 20.214844 51.445312 20.34375 50.15625 20.378906 C 49.570312 20.398438 48.574219 20.511719 47.996094 20.203125 C 48.164062 19.351562 48.164062 18.507812 47.976562 17.707031 C 50.785156 17.589844 53.382812 16.546875 55.949219 15.507812 C 58.589844 14.4375 61.289062 13.285156 64.191406 13.386719 C 64.386719 13.390625 64.382812 13.101562 64.191406 13.082031 C 61.410156 12.816406 58.660156 13.476562 56.058594 14.417969 C 53.539062 15.328125 51.019531 16.289062 48.324219 16.441406 C 48.734375 15.304688 49.152344 14.171875 49.617188 13.0625 C 49.917969 13.128906 50.222656 13.1875 50.535156 13.203125 Z M 46.203125 48.890625 C 42.84375 49.917969 39.503906 51.007812 36.179688 52.152344 C 36.226562 52.089844 36.265625 52.015625 36.289062 51.941406 C 36.648438 50.769531 36.527344 49.410156 36.542969 48.195312 C 36.5625 46.917969 36.570312 45.640625 36.535156 44.371094 C 36.503906 43.132812 36.453125 41.886719 36.355469 40.652344 C 36.25 39.375 35.972656 38.113281 35.921875 36.839844 C 35.917969 36.746094 35.777344 36.746094 35.78125 36.839844 C 35.785156 38.078125 35.546875 39.316406 35.433594 40.550781 C 35.3125 41.824219 35.238281 43.101562 35.136719 44.371094 C 35.042969 45.609375 34.960938 46.855469 34.855469 48.09375 C 34.75 49.355469 34.484375 50.683594 34.679688 51.941406 C 34.6875 52.007812 34.710938 52.070312 34.734375 52.132812 C 34.070312 51.824219 33.394531 51.539062 32.730469 51.242188 C 31.5625 50.714844 30.394531 50.1875 29.230469 49.652344 C 28.449219 49.296875 27.675781 48.929688 26.898438 48.566406 C 27.542969 48.546875 28.191406 48.53125 28.835938 48.484375 C 29.648438 48.429688 30.53125 48.222656 31.148438 47.652344 C 31.601562 47.246094 31.867188 46.445312 31.941406 45.859375 C 32 45.410156 31.976562 44.964844 31.914062 44.519531 C 32.085938 43.085938 32.238281 41.648438 32.34375 40.203125 C 32.484375 38.285156 32.449219 36.335938 32.722656 34.433594 C 32.789062 33.949219 32.898438 33.476562 33.042969 33.019531 C 33.878906 33.378906 34.71875 33.730469 35.574219 34.054688 C 35.691406 34.101562 35.804688 34.109375 35.910156 34.09375 C 36.019531 34.109375 36.140625 34.09375 36.273438 34.054688 C 40.898438 32.527344 45.554688 31.089844 50.230469 29.722656 C 50.878906 30.722656 51.015625 31.964844 51.042969 33.136719 C 51.078125 34.519531 50.996094 35.898438 51.09375 37.277344 C 51.183594 38.5625 51.398438 40.015625 52.203125 41.070312 C 53.023438 42.136719 53.980469 43.101562 54.796875 44.175781 C 55.265625 44.789062 55.667969 45.421875 56.023438 46.082031 C 52.730469 46.960938 49.457031 47.890625 46.203125 48.890625 Z M 46.722656 29.03125 C 43.082031 30.09375 39.449219 31.210938 35.839844 32.375 C 35.15625 32.039062 34.464844 31.722656 33.765625 31.414062 C 34.039062 30.957031 34.359375 30.535156 34.75 30.15625 C 35.773438 29.15625 37.011719 28.425781 38.214844 27.675781 C 38.949219 27.214844 39.6875 26.75 40.335938 26.167969 C 40.921875 25.644531 41.382812 25.085938 41.839844 24.464844 C 41.882812 24.453125 41.925781 24.429688 41.964844 24.40625 C 42.058594 24.847656 42.238281 25.257812 42.546875 25.636719 C 43.027344 26.222656 43.695312 26.503906 44.398438 26.734375 C 45.304688 27.03125 46.203125 27.292969 47.09375 27.640625 C 47.683594 27.871094 48.285156 28.105469 48.832031 28.429688 C 48.121094 28.628906 47.421875 28.828125 46.722656 29.03125 Z M 41.53125 21.667969 C 41.15625 22.300781 41.066406 22.957031 41.292969 23.617188 C 41.183594 23.59375 41.074219 23.566406 40.972656 23.523438 C 40.667969 23.40625 40.394531 23.222656 40.167969 22.988281 C 39.738281 22.550781 39.5 21.902344 39.632812 21.285156 C 39.921875 19.9375 41.265625 19.269531 42.539062 19.09375 C 42.519531 19.117188 42.527344 19.160156 42.570312 19.160156 C 42.613281 19.160156 42.621094 19.105469 42.589844 19.089844 C 42.652344 19.078125 42.710938 19.070312 42.773438 19.066406 C 42.84375 19.0625 42.871094 18.953125 42.792969 18.9375 C 41.546875 18.734375 40.089844 19.179688 39.285156 20.1875 C 38.53125 21.128906 38.683594 22.460938 39.386719 23.371094 C 38.078125 22.636719 36.664062 21.601562 36.140625 20.152344 C 35.664062 18.824219 36.089844 17.492188 37.035156 16.5 C 39.199219 14.238281 42.917969 14.289062 45.433594 15.9375 C 46.777344 16.820312 47.882812 18.394531 47.746094 20.046875 C 47.300781 19.574219 46.476562 19.457031 45.878906 19.46875 C 45.023438 19.488281 44.136719 19.765625 43.359375 20.121094 C 42.625 20.457031 41.949219 20.964844 41.53125 21.667969 Z M 39.160156 5.824219 C 39.394531 5.132812 39.296875 4.449219 39.210938 3.738281 C 39.136719 3.109375 39.105469 2.378906 39.621094 1.921875 C 40.585938 1.066406 42.242188 1.40625 43.339844 1.714844 C 44.726562 2.105469 46.074219 2.65625 47.523438 2.765625 C 47.757812 2.785156 48.003906 2.789062 48.25 2.785156 C 47.265625 3.625 46.492188 4.804688 45.976562 5.957031 C 45.929688 6.0625 46.0625 6.199219 46.148438 6.089844 C 46.617188 5.507812 46.996094 4.871094 47.527344 4.335938 C 48.050781 3.808594 48.671875 3.34375 49.347656 3.035156 C 50.144531 2.675781 51.007812 2.503906 51.855469 2.324219 C 52.78125 2.128906 53.707031 1.9375 54.640625 1.757812 C 55.542969 1.582031 56.449219 1.40625 57.359375 1.234375 C 58.207031 1.070312 59.210938 0.835938 59.996094 1.332031 C 61.121094 2.039062 60.917969 3.148438 60.433594 4.15625 C 60.273438 3.414062 59.707031 2.816406 58.96875 2.605469 C 57.0625 2.066406 55.105469 3.796875 53.8125 4.972656 C 52.324219 6.328125 51.074219 7.945312 50.078125 9.695312 C 48.898438 11.769531 48.03125 14.015625 47.417969 16.324219 C 47.265625 16.066406 47.097656 15.816406 46.886719 15.578125 C 46.328125 14.941406 45.640625 14.460938 44.882812 14.101562 C 45.996094 12.066406 47.203125 10.074219 48.605469 8.214844 C 48.691406 8.101562 48.511719 7.992188 48.421875 8.074219 C 46.570312 9.636719 44.945312 11.523438 43.863281 13.703125 C 43.179688 13.496094 42.460938 13.375 41.753906 13.339844 C 41.183594 13.3125 40.609375 13.347656 40.039062 13.441406 C 40.703125 12.40625 40.53125 10.753906 40.296875 9.683594 C 40.019531 8.417969 39.480469 7.1875 38.777344 6.097656 C 38.933594 6.101562 39.089844 6.019531 39.160156 5.824219 Z M 35.746094 15.398438 C 34.972656 15.191406 34.140625 15.246094 33.34375 15.1875 C 32.65625 15.132812 31.976562 15.03125 31.300781 14.902344 C 31.089844 14.695312 30.851562 14.511719 30.625 14.332031 C 30.273438 14.046875 29.914062 13.785156 29.527344 13.554688 C 29.164062 13.335938 28.792969 13.144531 28.402344 12.972656 C 28.015625 12.800781 27.652344 12.589844 27.261719 12.429688 C 27.226562 12.414062 27.199219 12.46875 27.226562 12.492188 C 27.53125 12.769531 27.859375 13.007812 28.144531 13.308594 C 28.433594 13.613281 28.730469 13.90625 29.03125 14.203125 C 29.117188 14.289062 29.207031 14.367188 29.296875 14.453125 C 28.339844 14.203125 27.390625 13.914062 26.445312 13.609375 C 26.320312 13.566406 26.191406 13.527344 26.070312 13.484375 C 25.582031 12.605469 24.714844 12.015625 23.8125 11.597656 C 22.5625 11.015625 21.238281 10.652344 19.945312 10.1875 C 19.234375 9.941406 18.550781 9.652344 17.902344 9.273438 C 17.59375 9.089844 17.132812 8.835938 16.773438 8.527344 C 16.75 8.492188 16.722656 8.460938 16.6875 8.433594 C 16.058594 7.984375 16.722656 7.417969 17.1875 7.203125 C 17.804688 6.910156 18.527344 6.796875 19.203125 6.757812 C 20.6875 6.660156 22.097656 7.140625 23.5625 7.175781 C 23.636719 7.175781 23.648438 7.082031 23.597656 7.046875 C 23.195312 6.761719 22.816406 6.539062 22.355469 6.351562 C 21.910156 6.175781 21.429688 6.054688 20.957031 5.976562 C 20.632812 5.921875 20.308594 5.894531 19.984375 5.871094 C 20.285156 5.804688 20.585938 5.738281 20.882812 5.675781 C 22.019531 5.433594 23.152344 5.167969 24.277344 4.863281 C 25.199219 4.613281 26.4375 4.101562 27.386719 4.460938 C 27.445312 4.476562 27.5 4.464844 27.542969 4.433594 C 27.566406 4.441406 27.589844 4.449219 27.617188 4.460938 C 27.789062 4.503906 27.941406 4.3125 27.847656 4.15625 C 27.785156 4.042969 29.152344 3.773438 29.257812 3.746094 C 29.601562 3.65625 29.929688 3.515625 30.226562 3.316406 C 30.902344 2.875 31.425781 2.359375 32.285156 2.347656 C 33.246094 2.335938 34.109375 2.910156 34.863281 3.4375 C 35.554688 3.921875 36.191406 4.476562 36.777344 5.089844 C 37.839844 6.207031 38.667969 7.546875 39.164062 9.003906 C 39.410156 9.722656 39.621094 10.476562 39.675781 11.238281 C 39.710938 11.664062 39.683594 12.09375 39.613281 12.515625 C 39.550781 12.886719 39.40625 13.234375 39.308594 13.597656 C 38.246094 13.875 37.25 14.371094 36.433594 15.125 C 36.277344 15.273438 36.132812 15.429688 35.996094 15.59375 C 35.929688 15.5 35.851562 15.429688 35.746094 15.398438 Z M 17.019531 43.242188 C 17.882812 41.347656 18.460938 39.335938 18.921875 37.316406 C 19.515625 34.699219 20.097656 32.085938 20.691406 29.46875 C 20.914062 28.484375 21.136719 27.292969 21.832031 26.515625 C 22.367188 25.914062 23.1875 25.550781 23.929688 25.277344 C 25.832031 24.582031 28.039062 24.304688 29.539062 22.824219 C 29.652344 22.71875 29.707031 22.589844 29.71875 22.460938 C 31.054688 22.164062 32.394531 21.679688 33.59375 20.980469 C 33.195312 21.492188 32.808594 22.011719 32.386719 22.503906 C 31.972656 22.984375 31.507812 23.394531 30.96875 23.730469 C 30.691406 23.898438 30.414062 24.050781 30.125 24.195312 C 29.839844 24.34375 29.539062 24.523438 29.238281 24.632812 C 29.117188 24.679688 29.136719 24.84375 29.269531 24.855469 C 29.453125 24.875 29.609375 24.921875 29.796875 24.914062 C 29.964844 24.90625 30.136719 24.886719 30.304688 24.859375 C 30.636719 24.804688 30.972656 24.683594 31.277344 24.542969 C 31.921875 24.25 32.511719 23.824219 33.058594 23.378906 C 33.644531 22.902344 34.136719 22.359375 34.546875 21.722656 C 34.761719 21.390625 34.980469 21.054688 35.132812 20.691406 C 35.238281 20.4375 35.367188 20.183594 35.464844 19.917969 C 36.261719 21.59375 37.898438 22.890625 39.472656 23.765625 C 39.570312 23.820312 39.660156 23.765625 39.691406 23.6875 C 39.726562 23.726562 39.765625 23.761719 39.804688 23.792969 C 40.058594 24.007812 40.34375 24.175781 40.652344 24.296875 C 39.636719 24.957031 38.539062 25.523438 37.515625 26.148438 C 36.207031 26.953125 34.878906 27.769531 33.757812 28.828125 C 32.496094 30.019531 31.574219 31.433594 31.171875 33.132812 C 30.71875 35.0625 30.769531 37.132812 30.824219 39.097656 C 30.890625 41.484375 31.046875 43.84375 31.242188 46.214844 C 31.023438 46.769531 30.5625 47.136719 29.898438 47.195312 C 29.046875 47.273438 28.167969 47.25 27.3125 47.28125 C 26.332031 47.324219 25.351562 47.351562 24.371094 47.371094 C 22.480469 47.414062 20.59375 47.421875 18.703125 47.464844 C 17.761719 47.480469 16.816406 47.53125 15.871094 47.566406 C 15.085938 47.59375 14.144531 47.484375 13.363281 47.6875 C 14.1875 47.199219 14.886719 46.429688 15.492188 45.703125 C 16.121094 44.964844 16.617188 44.125 17.019531 43.242188 Z M 19.65625 80.730469 C 18.941406 80.402344 18.222656 80.078125 17.511719 79.742188 C 16.945312 79.476562 16.265625 79.179688 15.878906 78.667969 C 15.5 78.15625 15.492188 77.492188 15.574219 76.886719 C 15.6875 76.042969 15.902344 75.21875 15.992188 74.371094 C 16.347656 71.121094 15.667969 67.855469 14.949219 64.699219 C 14.210938 61.433594 13.554688 58.179688 13.179688 54.847656 C 12.96875 53.003906 12.828125 51.144531 12.75 49.292969 C 12.675781 47.410156 12.789062 45.554688 12.898438 43.675781 C 13.253906 43.859375 13.609375 44.042969 13.96875 44.226562 C 14.308594 44.398438 14.648438 44.566406 14.988281 44.734375 C 14.78125 45.164062 14.5625 45.609375 14.296875 46.003906 C 13.941406 46.519531 13.472656 46.960938 13.074219 47.4375 C 12.972656 47.554688 13.042969 47.722656 13.160156 47.757812 C 13.152344 47.761719 13.136719 47.761719 13.125 47.765625 C 13.058594 47.789062 13.027344 47.894531 13.101562 47.925781 C 13.523438 48.121094 13.992188 48.140625 14.449219 48.191406 C 14.957031 48.246094 15.46875 48.292969 15.976562 48.34375 C 17.066406 48.449219 18.148438 48.539062 19.246094 48.589844 C 20.515625 48.648438 21.792969 48.65625 23.066406 48.644531 C 23.421875 48.808594 23.773438 48.972656 24.125 49.140625 C 24.125 49.140625 24.121094 49.144531 24.121094 49.144531 C 23.695312 50.085938 23.578125 51.113281 23.441406 52.132812 C 23.292969 53.222656 23.164062 54.316406 23.089844 55.414062 C 22.949219 57.632812 22.898438 59.863281 23.011719 62.085938 C 23.125 64.308594 23.371094 66.519531 23.683594 68.726562 C 23.992188 70.894531 24.316406 73.074219 24.296875 75.265625 C 24.289062 76.335938 24.207031 77.402344 24.039062 78.457031 C 23.859375 79.597656 23.640625 80.722656 23.132812 81.769531 C 23.121094 81.785156 23.121094 81.804688 23.117188 81.828125 C 22.035156 82.070312 20.558594 81.144531 19.65625 80.730469 Z M 31.621094 84.945312 C 29.457031 83.792969 27.3125 82.601562 25.1875 81.371094 C 25.023438 81.277344 24.867188 81.183594 24.707031 81.085938 C 24.714844 81.058594 24.726562 81.035156 24.734375 81.015625 C 24.746094 80.972656 24.753906 80.941406 24.753906 80.90625 C 24.96875 80.472656 25.164062 80.03125 25.3125 79.589844 C 25.613281 78.644531 25.78125 77.671875 25.882812 76.6875 C 26.105469 74.535156 25.832031 72.339844 25.542969 70.207031 C 24.929688 65.710938 24.375 61.25 24.332031 56.703125 C 24.316406 55.414062 24.324219 54.125 24.351562 52.835938 C 24.378906 51.636719 24.519531 50.417969 24.324219 49.230469 C 25.433594 49.746094 26.542969 50.273438 27.652344 50.78125 C 28.964844 51.386719 30.28125 51.984375 31.601562 52.582031 C 32.917969 53.175781 34.222656 53.851562 35.609375 54.257812 C 35.953125 54.355469 36.234375 54.210938 36.394531 53.972656 C 36.695312 53.871094 37 53.765625 37.300781 53.660156 C 36.914062 61.566406 36.820312 69.488281 36.929688 77.394531 C 36.980469 80.859375 37.09375 84.324219 37.234375 87.789062 C 36.417969 87.371094 35.582031 86.988281 34.765625 86.578125 C 33.710938 86.046875 32.664062 85.5 31.621094 84.945312 Z M 46.789062 85.566406 C 45.203125 86.058594 43.617188 86.539062 42.046875 87.054688 C 41.25 87.316406 40.453125 87.585938 39.660156 87.859375 C 39.488281 87.921875 39.3125 87.984375 39.144531 88.046875 C 38.890625 81.667969 38.769531 75.277344 38.683594 68.894531 C 38.609375 63.652344 38.675781 58.410156 38.746094 53.167969 C 44.058594 51.34375 49.417969 49.65625 54.820312 48.125 C 54.714844 49.015625 54.710938 49.9375 54.679688 50.820312 C 54.640625 52.039062 54.640625 53.253906 54.683594 54.472656 C 54.769531 56.90625 54.996094 59.335938 55.269531 61.757812 C 55.542969 64.191406 55.90625 66.621094 56.304688 69.039062 C 56.691406 71.386719 57.199219 73.710938 57.59375 76.054688 C 57.804688 77.28125 57.945312 78.542969 57.878906 79.789062 C 57.835938 80.707031 57.625 81.578125 57.355469 82.433594 C 53.832031 83.457031 50.296875 84.484375 46.789062 85.566406 Z M 68.355469 80.550781 C 67.558594 81.160156 66.539062 81.578125 65.601562 81.910156 C 64.457031 82.316406 63.257812 82.601562 62.066406 82.851562 C 60.972656 83.078125 59.800781 83.183594 58.675781 83.089844 C 59.605469 81.457031 59.820312 79.378906 59.6875 77.554688 C 59.515625 75.121094 58.894531 72.726562 58.453125 70.335938 C 57.550781 65.425781 56.980469 60.484375 56.339844 55.542969 C 56.167969 54.203125 56.019531 52.859375 55.820312 51.519531 C 55.652344 50.363281 55.539062 49.148438 55.277344 47.996094 C 55.753906 47.863281 56.238281 47.730469 56.714844 47.597656 C 56.792969 47.792969 56.871094 47.988281 56.945312 48.195312 C 57.355469 49.367188 57.644531 50.582031 58.109375 51.730469 C 58.046875 51.84375 58.0625 51.984375 58.199219 52.09375 C 58.234375 52.121094 58.265625 52.148438 58.296875 52.179688 C 58.375 52.355469 58.457031 52.523438 58.546875 52.683594 C 58.675781 52.921875 58.957031 52.992188 59.203125 52.933594 C 60.667969 54.1875 62.09375 55.476562 63.738281 56.515625 C 64.582031 57.054688 65.441406 57.558594 66.3125 58.042969 C 66.222656 58.265625 66.191406 58.515625 66.199219 58.820312 C 66.210938 59.417969 66.273438 60.019531 66.316406 60.613281 C 66.414062 61.808594 66.53125 63 66.671875 64.195312 C 66.953125 66.582031 67.324219 68.96875 67.78125 71.328125 C 68.007812 72.507812 68.261719 73.679688 68.53125 74.847656 C 68.777344 75.898438 69.125 76.964844 69.246094 78.035156 C 69.359375 79.03125 69.179688 79.917969 68.355469 80.550781 Z M 74.261719 43.128906 C 76.0625 42.695312 77.863281 42.285156 79.667969 41.875 C 80.238281 41.742188 80.8125 41.621094 81.386719 41.496094 C 81.378906 43.074219 81.363281 44.644531 81.34375 46.21875 C 81.246094 52.628906 81.105469 59.042969 80.953125 65.449219 C 80.871094 68.851562 80.773438 72.246094 80.683594 75.648438 C 79.484375 75.878906 78.289062 76.332031 77.136719 76.667969 C 75.710938 77.082031 74.28125 77.5 72.855469 77.917969 C 72.273438 78.085938 71.695312 78.257812 71.113281 78.425781 C 71.09375 77.976562 71.027344 77.523438 70.929688 77.078125 C 70.675781 75.859375 70.308594 74.660156 70.03125 73.449219 C 69.449219 70.9375 68.984375 68.40625 68.625 65.851562 C 68.417969 64.390625 68.257812 62.925781 68.125 61.457031 C 68.0625 60.753906 68.007812 60.050781 67.960938 59.347656 C 67.953125 59.195312 67.941406 59.050781 67.929688 58.910156 C 68.050781 58.972656 68.175781 59.042969 68.300781 59.105469 C 68.875 59.402344 69.527344 59.675781 70.011719 60.109375 C 70.332031 60.390625 70.953125 60.222656 70.921875 59.730469 C 70.871094 58.90625 70.625 58.097656 70.554688 57.269531 C 70.480469 56.429688 70.476562 55.589844 70.507812 54.75 C 70.570312 53.078125 70.726562 51.410156 70.78125 49.738281 C 70.835938 48.050781 70.777344 46.335938 70.390625 44.683594 C 70.34375 44.488281 70.292969 44.296875 70.242188 44.109375 C 71.574219 43.78125 72.917969 43.449219 74.261719 43.128906 Z M 64.355469 29.765625 C 64.28125 33.222656 65.113281 36.492188 66.582031 39.609375 C 67.289062 41.109375 68.0625 42.585938 68.574219 44.171875 C 69.078125 45.722656 69.238281 47.328125 69.242188 48.953125 C 69.246094 50.824219 69.058594 52.683594 69.078125 54.554688 C 69.085938 55.496094 69.132812 56.433594 69.253906 57.367188 C 69.3125 57.820312 69.375 58.300781 69.480469 58.769531 C 68.789062 58.386719 68.125 57.878906 67.507812 57.464844 C 67.398438 57.394531 67.289062 57.316406 67.179688 57.242188 C 67.167969 57.230469 67.148438 57.222656 67.128906 57.210938 C 66.277344 56.640625 65.421875 56.0625 64.578125 55.476562 C 63.636719 54.828125 62.679688 54.210938 61.722656 53.585938 C 61.242188 53.269531 60.714844 53.058594 60.238281 52.742188 C 60.023438 52.601562 59.816406 52.445312 59.609375 52.289062 C 59.242188 49.648438 57.785156 47.035156 56.214844 44.914062 C 55.441406 43.875 54.449219 42.953125 53.808594 41.824219 C 53.148438 40.65625 52.78125 39.25 52.554688 37.933594 C 52.101562 35.3125 52.574219 32.5625 51.753906 30 C 51.378906 28.816406 50.664062 27.84375 49.609375 27.1875 C 48.566406 26.542969 47.40625 26.25 46.230469 25.972656 C 45.398438 25.777344 44.519531 25.742188 43.703125 25.476562 C 42.597656 25.125 42.289062 24.0625 42.042969 23.015625 C 42.042969 23.011719 42.039062 23.011719 42.039062 23.007812 C 42.058594 22.726562 42.144531 22.46875 42.273438 22.222656 C 42.710938 22.8125 43.210938 23.363281 43.785156 23.8125 C 44.128906 24.078125 44.480469 24.359375 44.871094 24.550781 C 45.078125 24.652344 45.285156 24.742188 45.488281 24.84375 C 45.683594 24.9375 45.867188 25.074219 46.078125 25.132812 C 46.183594 25.160156 46.257812 25.03125 46.183594 24.957031 C 46.042969 24.804688 45.855469 24.707031 45.699219 24.574219 C 45.535156 24.433594 45.390625 24.277344 45.246094 24.121094 C 44.96875 23.8125 44.652344 23.539062 44.371094 23.230469 C 43.832031 22.640625 43.355469 22.085938 42.925781 21.4375 C 43.199219 21.191406 43.515625 20.988281 43.824219 20.824219 C 44.421875 20.511719 45.082031 20.289062 45.75 20.175781 C 46.402344 20.0625 46.953125 20.140625 47.503906 20.464844 C 47.523438 20.515625 47.550781 20.566406 47.601562 20.601562 C 48.0625 20.9375 48.675781 20.980469 49.226562 21.023438 C 50.105469 21.089844 50.992188 21.070312 51.878906 21.023438 C 54.261719 22.875 57.425781 22.527344 60.179688 23.355469 C 60.820312 23.550781 61.425781 23.769531 62.015625 24.097656 C 62.570312 24.40625 62.988281 24.796875 63.460938 25.207031 C 63.6875 25.40625 63.859375 25.628906 63.996094 25.867188 C 64 25.886719 64.011719 25.898438 64.015625 25.917969 C 64.019531 25.917969 64.019531 25.917969 64.023438 25.917969 C 64.625 27.039062 64.378906 28.527344 64.355469 29.765625 Z M 64.445312 24.300781 C 64.304688 24.054688 64.140625 23.824219 63.917969 23.605469 C 63.542969 23.234375 63.101562 22.921875 62.640625 22.671875 C 62.796875 22.652344 62.949219 22.640625 63.085938 22.625 C 63.761719 22.558594 64.445312 22.46875 65.128906 22.476562 C 65.800781 22.484375 66.449219 22.625 67.097656 22.785156 C 67.625 22.917969 68.132812 23.09375 68.613281 23.335938 C 67.855469 23.507812 67.097656 23.679688 66.339844 23.851562 C 65.707031 24 65.078125 24.152344 64.445312 24.300781 Z M 77.515625 23.265625 C 76.371094 24.382812 74.660156 24.519531 73.054688 24.570312 C 72.773438 24.523438 72.492188 24.453125 72.207031 24.363281 C 71.542969 24.175781 70.925781 23.96875 70.308594 23.652344 C 69.746094 23.367188 69.167969 23.066406 68.648438 22.710938 C 68.105469 22.347656 67.597656 21.941406 66.984375 21.699219 C 65.832031 21.242188 64.609375 21.359375 63.421875 21.605469 C 62.789062 21.734375 62.15625 21.871094 61.519531 21.953125 C 61.28125 21.984375 61.035156 21.992188 60.796875 21.992188 C 58.292969 21.382812 55.609375 21.726562 53.152344 20.945312 C 54.992188 20.824219 56.832031 20.640625 58.648438 20.34375 C 59.375 20.222656 60.105469 20.101562 60.820312 19.910156 C 62.152344 19.550781 63.433594 19.09375 64.804688 18.851562 C 66.597656 18.535156 68.433594 18.441406 70.25 18.527344 C 72.007812 18.609375 73.832031 18.839844 75.492188 19.449219 C 76.917969 19.972656 79.132812 21.6875 77.515625 23.265625 Z M 81.160156 20.886719 C 80.59375 20.980469 80.027344 21.082031 79.453125 21.175781 C 79.871094 20.269531 80 19.285156 79.867188 18.324219 C 80.566406 18.574219 81.265625 18.832031 81.960938 19.09375 C 82.632812 19.351562 83.308594 19.59375 83.976562 19.855469 C 84.40625 20.023438 84.855469 20.222656 85.320312 20.320312 C 83.925781 20.492188 82.546875 20.65625 81.160156 20.886719 Z M 62.261719 31.3125 C 62.289062 31.3125 62.289062 31.351562 62.261719 31.351562 C 62.234375 31.351562 62.234375 31.3125 62.261719 31.3125 Z M 62.261719 31.3125 " fill-opacity="1" fill-rule="nonzero"/></g></svg>